<svg width="85" height="85" viewBox="0 0 85 85" fill="none" xmlns="http://www.w3.org/2000/svg">
<g clip-path="url(#clip0_85_1139)">
<path d="M85 0H0V85H85V0Z" fill="#005829"/>
<path d="M52.4743 25.2344L62.4485 42.5L52.4743 59.7656H32.5258L22.5516 42.5L32.5258 25.2344H52.4743ZM54.7719 21.25H30.2282L17.9563 42.5L30.2282 63.75H54.7719L67.0438 42.5L54.7719 21.25Z" fill="white"/>
<path d="M40.8133 51.2656L44.1867 57.1094H50.9336L54.307 51.2656L50.9336 45.4219H44.1867L40.8133 51.2656Z" fill="#CCCBCB"/>
<path d="M30.693 45.4219L34.0664 51.2656H40.8133L44.1867 45.4219L40.8133 39.5781H34.0664L30.693 45.4219Z" fill="#E5E5E5"/>
<path d="M30.693 33.7344L34.0664 39.5781H40.8133L44.1867 33.7344L40.8133 27.8906H34.0664L30.693 33.7344Z" fill="white"/>
<path d="M46.564 45.4219H44.1867L40.8133 51.2656L42.0086 53.3242L43.1906 55.3828L44.3859 53.3242L47.7594 47.4805L48.9414 45.4219H46.564Z" fill="url(#paint0_linear_85_1139)"/>
<path d="M42.0086 41.6367L40.8133 39.5781H34.0664L32.8711 41.6367L31.6891 43.6953H34.0664H40.8133H43.1906L42.0086 41.6367Z" fill="url(#paint1_linear_85_1139)"/>
</g>
<defs>
<linearGradient id="paint0_linear_85_1139" x1="42.5008" y1="48.3438" x2="46.0702" y2="50.4046" gradientUnits="userSpaceOnUse">
<stop stop-opacity="0.4"/>
<stop offset="0.7864" stop-opacity="0"/>
</linearGradient>
<linearGradient id="paint1_linear_85_1139" x1="37.4382" y1="43.7012" x2="37.4382" y2="39.5781" gradientUnits="userSpaceOnUse">
<stop offset="0.2136" stop-opacity="0"/>
<stop offset="1" stop-opacity="0.4"/>
</linearGradient>
<clipPath id="clip0_85_1139">
<rect width="85" height="85" fill="white"/>
</clipPath>
</defs>
</svg>
