<svg width="229" height="85" viewBox="0 0 229 85" fill="none" xmlns="http://www.w3.org/2000/svg">
<g clip-path="url(#clip0_192_142)">
<g filter="url(#filter0_d_192_142)">
<path d="M139.593 0H0V85H139.593V0Z" fill="#4D9D37"/>
<path d="M22.9621 63.0883L28.6565 56.0688H33.3643L31.0631 72.8633H26.5781L28.0138 62.3799L22.0759 69.4926L18.104 62.3799L16.6683 72.8633H12.1799L14.4794 56.0688H19.1872L22.9621 63.0883Z" fill="white"/>
<path d="M46.1783 56.0688L51.4977 72.8633H46.9039L45.945 69.5462H38.2622L36.5294 72.8633H31.9995L41.2286 56.0688H46.1783ZM44.9655 66.141L43.2102 60.0839L40.0451 66.141H44.9655Z" fill="white"/>
<path d="M54.7646 56.0688H63.4184C65.2393 56.0688 66.6214 56.5612 67.5613 57.5477C68.5011 58.5325 68.8328 60.0269 68.6479 61.3744C68.4579 62.7669 67.7168 64.2924 66.5212 65.2858C65.324 66.2792 63.8088 66.7768 61.9792 66.7768H57.7845L56.9501 72.8633H52.4617L54.7629 56.0688H54.7646ZM58.7831 59.474L58.251 63.3699H60.9599C62.8258 63.3699 63.8486 62.7203 64.0265 61.4211C64.125 60.692 63.9453 60.1858 63.4858 59.9008C63.0262 59.6157 62.1952 59.474 60.991 59.474H58.7831Z" fill="white"/>
<path d="M99.474 69.4581L99.008 72.8633H85.2834L87.5829 56.0688H101.309L100.843 59.474H91.6032L91.1488 62.7825H99.671L99.212 66.1341H90.6892L90.2349 69.4581H99.474Z" fill="white"/>
<path d="M68.1245 56.0689C69.1335 56.5163 70.1165 58.0677 70.2236 59.4723H74.8416L73.0086 72.8615H77.4952L79.3283 59.4723H85.5236L85.9901 56.0671H68.1245V56.0689Z" fill="white"/>
<path d="M105.283 72.8615H100.794L103.094 56.0671H107.582L105.283 72.8615Z" fill="white"/>
<path d="M120.579 56.0688C117.333 61.5938 112.553 64.5067 112.553 64.5067L118.798 72.8633H113.188L106.492 63.9469C106.492 63.9469 112.157 60.3413 114.957 56.0688H120.577H120.579Z" fill="white"/>
<path d="M107.687 19.9732C108.472 21.1359 108.969 22.4904 109.289 23.8742C109.959 23.546 110.763 23.1987 111.697 22.8757C112.656 22.544 113.418 22.3626 114.054 22.2762C113.629 20.4466 113 18.5963 112.055 17.1675C109.88 13.8781 106.68 12.166 102.418 12.166C96.6011 12.166 88.996 16.8583 81.0039 25.379C73.6062 33.2674 66.4071 43.9184 61.1982 54.6695H63.921C65.5657 54.6695 66.687 55.1549 66.687 55.1549L66.9461 54.6695C71.9355 44.9757 78.3589 35.7276 85.0466 28.6045C91.8466 21.3605 97.959 17.3697 102.256 17.3697C104.814 17.3697 106.502 18.2128 107.687 19.9698V19.9732Z" fill="white"/>
<path d="M123.302 27.2587C121.699 24.6914 119.092 23.4596 115.963 23.4596C115.766 23.4596 113.891 23.5373 111.521 24.3891C110.6 24.7208 109.733 25.1285 108.995 25.512C100.894 29.8812 93.1579 39.2451 90.696 43.6834C88.0286 48.4931 87.7884 50.9878 89.8115 52.8934C90.8429 53.8609 92.6517 54.3533 95.1914 54.3533C98.548 54.3533 102.539 53.4601 104.519 52.7155C106.906 51.843 108.703 50.6233 110.256 48.8698C113.696 44.9791 115.082 38.7302 114.911 29.9676C114.208 30.0989 113.354 30.3615 112.376 30.8729C111.3 31.4361 110.507 31.9751 109.928 32.433C109.894 38.9375 108.534 46.1366 103.083 48.3273C102.485 48.5674 99.369 49.7699 97.197 49.7699C96.05 49.7699 95.0929 49.5176 94.7594 48.8784C94.274 47.9507 94.9512 46.4131 96.4007 44.3243C99.806 39.423 102.945 36.0334 106.307 33.2052C106.907 32.699 107.523 32.2257 108.145 31.7851C108.475 31.545 110.5 30.0903 112.359 29.2852C113.427 28.8239 114.57 28.487 115.83 28.4836C116.588 28.4819 117.105 28.6823 117.131 28.6926C117.82 28.9362 118.399 29.3975 118.864 30.1127C120.004 31.8611 120.719 35.9815 120.192 40.8656C119.639 45.995 117.846 50.9861 115.828 54.6712H121.351C123.426 50.5473 125.13 45.0171 125.456 39.4541C125.767 34.1416 124.753 29.5824 123.3 27.2587H123.302Z" fill="white"/>
<path d="M123.31 56.3747H122.481L122.542 56.0896H124.53L124.47 56.3747H123.639L123.233 58.2923H122.906L123.312 56.3747H123.31Z" fill="white"/>
<path d="M126.916 56.0896H127.369L126.904 58.2923H126.577L126.964 56.4662H126.958L125.715 58.2923H125.427L124.953 56.5042H124.947L124.568 58.2923H124.242L124.708 56.0896H125.166L125.651 57.9157L126.918 56.0896H126.916Z" fill="white"/>
</g>
<mask id="mask0_192_142" style="mask-type:luminance" maskUnits="userSpaceOnUse" x="143" y="0" width="86" height="85">
<path d="M228.593 0H143.593V85H228.593V0Z" fill="white"/>
</mask>
<g mask="url(#mask0_192_142)">
<path d="M228.593 0H143.593V85H228.593V0Z" fill="#005829"/>
<path d="M196.067 25.2344L206.041 42.5L196.067 59.7656H176.119L166.145 42.5L176.119 25.2344H196.067ZM198.365 21.25H173.821L161.549 42.5L173.821 63.75H198.365L210.637 42.5L198.365 21.25Z" fill="white"/>
<path d="M184.406 51.2656L187.78 57.1094H194.527L197.9 51.2656L194.527 45.4219H187.78L184.406 51.2656Z" fill="#CCCBCB"/>
<path d="M174.286 45.4219L177.659 51.2656H184.406L187.78 45.4219L184.406 39.5781H177.659L174.286 45.4219Z" fill="#E5E5E5"/>
<path d="M174.286 33.7344L177.659 39.5781H184.406L187.78 33.7344L184.406 27.8906H177.659L174.286 33.7344Z" fill="white"/>
<path d="M190.157 45.4219H187.78L184.406 51.2656L185.602 53.3242L186.784 55.3828L187.979 53.3242L191.352 47.4805L192.534 45.4219H190.157Z" fill="url(#paint0_linear_192_142)"/>
<path d="M185.601 41.6367L184.406 39.5781H177.659L176.464 41.6367L175.282 43.6953H177.659H184.406H186.784L185.601 41.6367Z" fill="url(#paint1_linear_192_142)"/>
</g>
</g>
<defs>
<filter id="filter0_d_192_142" x="-3" y="-2" width="145.593" height="91" filterUnits="userSpaceOnUse" color-interpolation-filters="sRGB">
<feFlood flood-opacity="0" result="BackgroundImageFix"/>
<feColorMatrix in="SourceAlpha" type="matrix" values="0 0 0 0 0 0 0 0 0 0 0 0 0 0 0 0 0 0 127 0" result="hardAlpha"/>
<feOffset dy="1"/>
<feGaussianBlur stdDeviation="1.5"/>
<feComposite in2="hardAlpha" operator="out"/>
<feColorMatrix type="matrix" values="0 0 0 0 0 0 0 0 0 0 0 0 0 0 0 0 0 0 0.1 0"/>
<feBlend mode="normal" in2="BackgroundImageFix" result="effect1_dropShadow_192_142"/>
<feBlend mode="normal" in="SourceGraphic" in2="effect1_dropShadow_192_142" result="shape"/>
</filter>
<linearGradient id="paint0_linear_192_142" x1="186.094" y1="48.3438" x2="189.663" y2="50.4046" gradientUnits="userSpaceOnUse">
<stop stop-opacity="0.4"/>
<stop offset="0.7864" stop-opacity="0"/>
</linearGradient>
<linearGradient id="paint1_linear_192_142" x1="181.031" y1="43.7012" x2="181.031" y2="39.5781" gradientUnits="userSpaceOnUse">
<stop offset="0.2136" stop-opacity="0"/>
<stop offset="1" stop-opacity="0.4"/>
</linearGradient>
<clipPath id="clip0_192_142">
<rect width="228.593" height="85" fill="white"/>
</clipPath>
</defs>
</svg>
