<svg version="1.1" id="Layer_1" xmlns="http://www.w3.org/2000/svg" x="0" y="0" viewBox="0 0 242 100" xml:space="preserve"><style>.st1{fill:#fff}</style><path fill="#02582d" d="M170 0h72v100h-72"/><path class="st1" d="M187.9 91.7V78.6h1.1v12.1h6.3v1h-7.4zm15.5 0v-1.1c-.8.9-1.9 1.4-3.2 1.4-1.6 0-3.3-1.1-3.3-3.2s1.7-3.1 3.3-3.1c1.3 0 2.4.4 3.2 1.4v-1.9c0-1.4-1.1-2.2-2.6-2.2-1.2 0-2.1.4-3 1.4l-.6-.7c1-1.1 2.1-1.6 3.7-1.6 1.9 0 3.5.9 3.5 3v6.7h-1zm0-1.8v-2.1c-.7-.9-1.7-1.3-2.9-1.3-1.6 0-2.6 1-2.6 2.4 0 1.3 1 2.3 2.6 2.3 1.2-.1 2.3-.5 2.9-1.3zm4.2 1.8V78.6h1v5.1c.8-1.1 2-1.8 3.3-1.8 2.5 0 4.2 2 4.2 5s-1.7 5-4.2 5c-1.4 0-2.6-.8-3.3-1.7v1.5h-1zm4.2-.7c2.1 0 3.3-1.7 3.3-4s-1.2-4.1-3.3-4.1c-1.3 0-2.6.8-3.1 1.7v4.7c.5.9 1.8 1.7 3.1 1.7zm6.2-.5.6-.8c.6.8 1.7 1.4 3.1 1.4 1.6 0 2.5-.8 2.5-1.9 0-2.6-6-1.1-6-4.5 0-1.5 1.2-2.6 3.4-2.6 1.6 0 2.7.6 3.4 1.4l-.6.7c-.5-.7-1.6-1.3-2.8-1.3-1.5 0-2.4.7-2.4 1.7 0 2.4 6 .9 6 4.6 0 1.5-1.2 2.8-3.6 2.8-1.5 0-2.6-.5-3.6-1.5z"/><path fill="none" stroke="#fff" stroke-width=".885" stroke-miterlimit="10" d="M173.9 71.7h64.2"/><path class="st1" d="m214.4 21.5 8.4 14.5-8.4 14.5h-16.7L189.3 36l8.4-14.5h16.7m1.9-3.3h-20.6L185.4 36l10.3 17.9h20.6L226.6 36l-10.3-17.8z"/><path fill="#cccbcb" d="m204.6 43.2 2.8 4.7h5.5l2.7-4.7-2.7-4.8h-5.5z"/><path fill="#e6e5e5" d="m196.4 38.4 2.7 4.8h5.5l2.8-4.8-2.8-4.7h-5.5z"/><path class="st1" d="m196.4 28.9 2.7 4.8h5.5l2.8-4.8-2.8-4.8h-5.5z"/><linearGradient id="SVGID_1_" gradientUnits="userSpaceOnUse" x1="206.005" y1="40.802" x2="208.914" y2="42.481"><stop offset="0" stop-opacity=".4"/><stop offset=".786" stop-opacity="0"/></linearGradient><path fill="url(#SVGID_1_)" d="M209.3 38.4h-1.9l-2.8 4.8 1 1.7 1 1.6.9-1.6 2.8-4.8 1-1.7z"/><linearGradient id="SVGID_00000057140236677562892530000016095769770674848691_" gradientUnits="userSpaceOnUse" x1="201.88" y1="37.019" x2="201.88" y2="33.659"><stop offset=".214" stop-opacity="0"/><stop offset="1" stop-opacity=".4"/></linearGradient><path fill="url(#SVGID_00000057140236677562892530000016095769770674848691_)" d="m205.6 35.3-1-1.6h-5.5l-.9 1.6-1 1.7h9.4z"/><path fill="#59aa46" d="M0 0h164v100H0z"/><path class="st1" d="m27 74.2 6.7-8.3h5.5l-2.7 19.8h-5.3L33 73.4l-7 8.4-4.7-8.4-1.7 12.3h-5.3L17 66h5.5l4.5 8.2zM54.3 66l6.3 19.8h-5.4l-1.1-3.9h-9l-2 3.9h-5.3L48.5 66h5.8zm-1.4 11.8-2.1-7.1-3.7 7.1h5.8zM64.4 66h10.2c2.1 0 3.8.6 4.9 1.7 1.1 1.2 1.5 2.9 1.3 4.5-.2 1.6-1.1 3.4-2.5 4.6-1.4 1.2-3.2 1.8-5.3 1.8h-5l-1 7.2h-5.3L64.4 66zm4.8 4-.6 4.6h3.2c2.2 0 3.4-.8 3.6-2.3.1-.9-.1-1.5-.6-1.8-.5-.3-1.5-.5-2.9-.5h-2.7zM117 81.7l-.5 4h-16.1L103 66h16.1l-.5 4h-10.9l-.5 3.9h10l-.5 3.9h-10l-.5 3.9H117zM80.1 66c1.2.5 2.3 2.4 2.5 4H88l-2.2 15.8h5.3L93.3 70h7.3l.5-4h-21zm43.8 19.7h-5.3l2.7-19.8h5.3l-2.7 19.8z"/><path class="st1" d="M141.9 66c-3.8 6.5-9.4 9.9-9.4 9.9l7.3 9.8h-6.6l-7.9-10.5s6.7-4.2 10-9.3h6.6zm-15.2-42.5c.9 1.4 1.5 3 1.9 4.6.8-.4 1.7-.8 2.8-1.2 1.1-.4 2-.6 2.8-.7-.5-2.2-1.2-4.3-2.4-6-2.6-3.9-6.3-5.9-11.3-5.9-6.8 0-15.8 5.5-25.2 15.5-8.7 9.3-17.2 21.9-23.3 34.5h3.2c1.9 0 3.3.6 3.3.6l.3-.6c5.9-11.4 13.4-22.3 21.3-30.7 8-8.5 15.2-13.2 20.2-13.2 3 0 5 1 6.4 3.1z"/><path class="st1" d="M145.1 32.1c-1.9-3-5-4.5-8.6-4.5-.2 0-2.4.1-5.2 1.1-1.1.4-2.1.9-3 1.3-9.5 5.1-18.6 16.2-21.5 21.4-3.1 5.7-3.4 8.6-1 10.8 1.2 1.1 3.3 1.7 6.3 1.7 3.9 0 8.6-1.1 11-1.9 2.8-1 4.9-2.5 6.7-4.5 4-4.6 5.7-11.9 5.5-22.2-.8.2-1.8.5-3 1.1-1.3.7-2.2 1.3-2.9 1.8 0 7.7-1.6 16.1-8.1 18.7-.7.3-4.4 1.7-6.9 1.7-1.3 0-2.5-.3-2.9-1-.6-1.1.2-2.9 1.9-5.4 4-5.8 7.7-9.8 11.7-13.1.7-.6 1.4-1.2 2.2-1.7.4-.3 2.8-2 5-2.9 1.3-.5 2.6-.9 4.1-.9.9 0 1.5.2 1.5.2.8.3 1.5.8 2 1.7 1.3 2.1 2.2 6.9 1.6 12.7-.7 6-2.8 11.9-5.1 16.2h6.5c2.4-4.9 4.4-11.4 4.8-17.9.3-6.3-.9-11.7-2.6-14.4zm0 34.2h-1l.1-.3h2.3l-.1.3h-1l-.5 2.3h-.4l.6-2.3zm4.2-.3h.5l-.5 2.6h-.4l.5-2.1-1.5 2.1h-.3l-.6-2.1-.4 2.1h-.4l.5-2.6h.5l.6 2.1 1.5-2.1z"/></svg>